<mxfile host="app.diagrams.net" modified="2024-08-29T20:08:19.178Z" agent="Mozilla/5.0 (Macintosh; Intel Mac OS X 10_15_7) AppleWebKit/537.36 (KHTML, like Gecko) Chrome/126.0.0.0 Safari/537.36" etag="7AFXTveXs9z5R80IjT5x" version="24.3.1" type="github" pages="3">
  <diagram name="Text-to-Speech" id="nGCjQZcyoPzScQV2jGVf">
    <mxGraphModel dx="6328" dy="4230" grid="1" gridSize="10" guides="1" tooltips="1" connect="0" arrows="1" fold="1" page="1" pageScale="1" pageWidth="4681" pageHeight="3300" math="0" shadow="0">
      <root>
        <mxCell id="0" />
        <mxCell id="1" parent="0" />
        <mxCell id="kprOfOclKuLjvvo66FYy-3" value="" style="rounded=0;orthogonalLoop=1;jettySize=auto;html=1;endArrow=none;endFill=0;" parent="1" source="kprOfOclKuLjvvo66FYy-1" target="kprOfOclKuLjvvo66FYy-2" edge="1">
          <mxGeometry relative="1" as="geometry" />
        </mxCell>
        <mxCell id="kprOfOclKuLjvvo66FYy-1" value="" style="sketch=0;outlineConnect=0;fontColor=#232F3E;gradientColor=none;fillColor=#232F3D;strokeColor=none;dashed=0;verticalLabelPosition=bottom;verticalAlign=top;align=center;html=1;fontSize=12;fontStyle=0;aspect=fixed;pointerEvents=1;shape=mxgraph.aws4.users;" parent="1" vertex="1">
          <mxGeometry x="20" y="290" width="78" height="78" as="geometry" />
        </mxCell>
        <mxCell id="kprOfOclKuLjvvo66FYy-8" style="rounded=0;orthogonalLoop=1;jettySize=auto;html=1;exitX=1;exitY=0.5;exitDx=0;exitDy=0;" parent="1" source="kprOfOclKuLjvvo66FYy-2" target="kprOfOclKuLjvvo66FYy-7" edge="1">
          <mxGeometry relative="1" as="geometry">
            <mxPoint x="270" y="180" as="targetPoint" />
          </mxGeometry>
        </mxCell>
        <mxCell id="kprOfOclKuLjvvo66FYy-2" value="&lt;font style=&quot;font-size: 14px;&quot;&gt;Upload text file&lt;/font&gt;" style="rounded=0;whiteSpace=wrap;html=1;fillColor=none;" parent="1" vertex="1">
          <mxGeometry x="-1" y="150" width="120" height="60" as="geometry" />
        </mxCell>
        <mxCell id="kprOfOclKuLjvvo66FYy-4" value="&lt;font style=&quot;font-size: 14px;&quot;&gt;Users&lt;/font&gt;" style="whiteSpace=wrap;html=1;verticalAlign=top;fillColor=none;strokeColor=none;fontColor=#232F3E;sketch=0;gradientColor=none;dashed=0;fontStyle=0;pointerEvents=1;" parent="1" vertex="1">
          <mxGeometry x="-1" y="368" width="120" height="22" as="geometry" />
        </mxCell>
        <mxCell id="kprOfOclKuLjvvo66FYy-7" value="" style="sketch=0;outlineConnect=0;fontColor=#232F3E;gradientColor=none;fillColor=#7AA116;strokeColor=none;dashed=0;verticalLabelPosition=bottom;verticalAlign=top;align=center;html=1;fontSize=12;fontStyle=0;aspect=fixed;pointerEvents=1;shape=mxgraph.aws4.bucket;" parent="1" vertex="1">
          <mxGeometry x="270" y="138.4" width="80" height="83.2" as="geometry" />
        </mxCell>
        <mxCell id="kprOfOclKuLjvvo66FYy-16" value="" style="rounded=0;orthogonalLoop=1;jettySize=auto;html=1;entryX=0;entryY=0.5;entryDx=0;entryDy=0;entryPerimeter=0;" parent="1" source="kprOfOclKuLjvvo66FYy-9" target="kprOfOclKuLjvvo66FYy-14" edge="1">
          <mxGeometry relative="1" as="geometry">
            <mxPoint x="665" y="180" as="targetPoint" />
          </mxGeometry>
        </mxCell>
        <mxCell id="kprOfOclKuLjvvo66FYy-9" value="&lt;font style=&quot;font-size: 14px;&quot;&gt;PUT event&lt;/font&gt;" style="rounded=0;whiteSpace=wrap;html=1;fillColor=none;" parent="1" vertex="1">
          <mxGeometry x="490" y="150" width="90" height="60" as="geometry" />
        </mxCell>
        <mxCell id="kprOfOclKuLjvvo66FYy-10" style="rounded=0;orthogonalLoop=1;jettySize=auto;html=1;entryX=0;entryY=0.5;entryDx=0;entryDy=0;entryPerimeter=0;" parent="1" source="kprOfOclKuLjvvo66FYy-7" target="kprOfOclKuLjvvo66FYy-9" edge="1">
          <mxGeometry relative="1" as="geometry" />
        </mxCell>
        <mxCell id="kprOfOclKuLjvvo66FYy-11" value="&lt;font style=&quot;font-size: 14px;&quot;&gt;S3 Bucket&lt;/font&gt;&lt;div style=&quot;font-size: 14px;&quot;&gt;&lt;font style=&quot;font-size: 14px;&quot;&gt;(../input)&lt;/font&gt;&lt;/div&gt;" style="whiteSpace=wrap;html=1;verticalAlign=top;fillColor=none;strokeColor=none;fontColor=#232F3E;sketch=0;gradientColor=none;dashed=0;fontStyle=0;pointerEvents=1;" parent="1" vertex="1">
          <mxGeometry x="250" y="230" width="120" height="36.8" as="geometry" />
        </mxCell>
        <mxCell id="kprOfOclKuLjvvo66FYy-23" style="rounded=0;orthogonalLoop=1;jettySize=auto;html=1;exitX=1;exitY=0.5;exitDx=0;exitDy=0;exitPerimeter=0;" parent="1" source="kprOfOclKuLjvvo66FYy-24" target="kprOfOclKuLjvvo66FYy-20" edge="1">
          <mxGeometry relative="1" as="geometry">
            <mxPoint x="1020" y="180" as="targetPoint" />
          </mxGeometry>
        </mxCell>
        <mxCell id="kprOfOclKuLjvvo66FYy-30" style="edgeStyle=orthogonalEdgeStyle;rounded=0;orthogonalLoop=1;jettySize=auto;html=1;entryX=0;entryY=0.5;entryDx=0;entryDy=0;exitX=0.5;exitY=0;exitDx=0;exitDy=0;exitPerimeter=0;endArrow=none;endFill=0;" parent="1" source="kprOfOclKuLjvvo66FYy-14" target="kprOfOclKuLjvvo66FYy-29" edge="1">
          <mxGeometry relative="1" as="geometry">
            <mxPoint x="760" y="-10" as="sourcePoint" />
          </mxGeometry>
        </mxCell>
        <mxCell id="kprOfOclKuLjvvo66FYy-14" value="" style="sketch=0;points=[[0,0,0],[0.25,0,0],[0.5,0,0],[0.75,0,0],[1,0,0],[0,1,0],[0.25,1,0],[0.5,1,0],[0.75,1,0],[1,1,0],[0,0.25,0],[0,0.5,0],[0,0.75,0],[1,0.25,0],[1,0.5,0],[1,0.75,0]];outlineConnect=0;fontColor=#232F3E;fillColor=#ED7100;strokeColor=#ffffff;dashed=0;verticalLabelPosition=bottom;verticalAlign=top;align=center;html=1;fontSize=12;fontStyle=0;aspect=fixed;shape=mxgraph.aws4.resourceIcon;resIcon=mxgraph.aws4.lambda;" parent="1" vertex="1">
          <mxGeometry x="720" y="141" width="78" height="78" as="geometry" />
        </mxCell>
        <mxCell id="kprOfOclKuLjvvo66FYy-17" value="Lambda Function" style="whiteSpace=wrap;html=1;verticalAlign=top;fillColor=none;strokeColor=#ffffff;fontColor=#232F3E;sketch=0;dashed=0;fontStyle=0;" parent="1" vertex="1">
          <mxGeometry x="699" y="221.59999999999997" width="120" height="24.6" as="geometry" />
        </mxCell>
        <mxCell id="kprOfOclKuLjvvo66FYy-19" value="" style="sketch=0;outlineConnect=0;fontColor=#232F3E;gradientColor=none;fillColor=#7AA116;strokeColor=none;dashed=0;verticalLabelPosition=bottom;verticalAlign=top;align=center;html=1;fontSize=12;fontStyle=0;aspect=fixed;pointerEvents=1;shape=mxgraph.aws4.bucket;" parent="1" vertex="1">
          <mxGeometry x="1230" y="-61.6" width="80" height="83.2" as="geometry" />
        </mxCell>
        <mxCell id="kprOfOclKuLjvvo66FYy-20" value="" style="sketch=0;points=[[0,0,0],[0.25,0,0],[0.5,0,0],[0.75,0,0],[1,0,0],[0,1,0],[0.25,1,0],[0.5,1,0],[0.75,1,0],[1,1,0],[0,0.25,0],[0,0.5,0],[0,0.75,0],[1,0.25,0],[1,0.5,0],[1,0.75,0]];outlineConnect=0;fontColor=#232F3E;fillColor=#01A88D;strokeColor=#ffffff;dashed=0;verticalLabelPosition=bottom;verticalAlign=top;align=center;html=1;fontSize=12;fontStyle=0;aspect=fixed;shape=mxgraph.aws4.resourceIcon;resIcon=mxgraph.aws4.polly;" parent="1" vertex="1">
          <mxGeometry x="1240" y="141" width="78" height="78" as="geometry" />
        </mxCell>
        <mxCell id="kprOfOclKuLjvvo66FYy-21" value="&lt;font style=&quot;font-size: 14px;&quot;&gt;Amazon Polly&lt;/font&gt;" style="whiteSpace=wrap;html=1;verticalAlign=top;fillColor=none;strokeColor=#ffffff;fontColor=#232F3E;sketch=0;dashed=0;fontStyle=0;" parent="1" vertex="1">
          <mxGeometry x="1219" y="221.6" width="120" height="31" as="geometry" />
        </mxCell>
        <mxCell id="kprOfOclKuLjvvo66FYy-25" value="" style="rounded=0;orthogonalLoop=1;jettySize=auto;html=1;exitX=1;exitY=0.5;exitDx=0;exitDy=0;exitPerimeter=0;endArrow=none;endFill=0;" parent="1" source="kprOfOclKuLjvvo66FYy-14" target="kprOfOclKuLjvvo66FYy-24" edge="1">
          <mxGeometry relative="1" as="geometry">
            <mxPoint x="1022" y="180" as="targetPoint" />
            <mxPoint x="798" y="180" as="sourcePoint" />
          </mxGeometry>
        </mxCell>
        <mxCell id="kprOfOclKuLjvvo66FYy-24" value="&lt;font style=&quot;font-size: 14px;&quot;&gt;Polly API&lt;/font&gt;" style="rounded=0;whiteSpace=wrap;html=1;fillColor=none;strokeColor=default;" parent="1" vertex="1">
          <mxGeometry x="890" y="172.9" width="90" height="15" as="geometry" />
        </mxCell>
        <mxCell id="kprOfOclKuLjvvo66FYy-26" value="&lt;font style=&quot;font-size: 14px;&quot;&gt;Returns Amazon Polly audio file&lt;/font&gt;" style="rounded=0;whiteSpace=wrap;html=1;fillColor=none;strokeColor=default;" parent="1" vertex="1">
          <mxGeometry x="1010" y="187.9" width="180" height="32.1" as="geometry" />
        </mxCell>
        <mxCell id="kprOfOclKuLjvvo66FYy-27" style="rounded=0;orthogonalLoop=1;jettySize=auto;html=1;entryX=1;entryY=0.75;entryDx=0;entryDy=0;entryPerimeter=0;" parent="1" source="kprOfOclKuLjvvo66FYy-26" target="kprOfOclKuLjvvo66FYy-14" edge="1">
          <mxGeometry relative="1" as="geometry" />
        </mxCell>
        <mxCell id="kprOfOclKuLjvvo66FYy-28" style="rounded=0;orthogonalLoop=1;jettySize=auto;html=1;entryX=0;entryY=0.75;entryDx=0;entryDy=0;entryPerimeter=0;endArrow=none;endFill=0;" parent="1" source="kprOfOclKuLjvvo66FYy-26" target="kprOfOclKuLjvvo66FYy-20" edge="1">
          <mxGeometry relative="1" as="geometry" />
        </mxCell>
        <mxCell id="kprOfOclKuLjvvo66FYy-31" style="edgeStyle=orthogonalEdgeStyle;rounded=0;orthogonalLoop=1;jettySize=auto;html=1;" parent="1" source="kprOfOclKuLjvvo66FYy-29" target="kprOfOclKuLjvvo66FYy-19" edge="1">
          <mxGeometry relative="1" as="geometry" />
        </mxCell>
        <mxCell id="kprOfOclKuLjvvo66FYy-29" value="&lt;font style=&quot;font-size: 14px;&quot;&gt;Saves Amazon Polly audio file&lt;/font&gt;" style="rounded=0;whiteSpace=wrap;html=1;fillColor=none;" parent="1" vertex="1">
          <mxGeometry x="870" y="-50" width="90" height="60" as="geometry" />
        </mxCell>
        <mxCell id="kprOfOclKuLjvvo66FYy-32" value="&lt;font style=&quot;font-size: 14px;&quot;&gt;S3 Bucket&lt;/font&gt;&lt;div style=&quot;font-size: 14px;&quot;&gt;&lt;font style=&quot;font-size: 14px;&quot;&gt;(../output)&lt;/font&gt;&lt;/div&gt;" style="whiteSpace=wrap;html=1;verticalAlign=top;fillColor=none;strokeColor=none;fontColor=#232F3E;sketch=0;gradientColor=none;dashed=0;fontStyle=0;pointerEvents=1;" parent="1" vertex="1">
          <mxGeometry x="1210" y="30" width="120" height="36.8" as="geometry" />
        </mxCell>
        <mxCell id="kprOfOclKuLjvvo66FYy-34" value="" style="html=1;verticalLabelPosition=bottom;align=center;labelBackgroundColor=#ffffff;verticalAlign=top;strokeWidth=2;strokeColor=#0080F0;shadow=0;dashed=0;shape=mxgraph.ios7.icons.settings;" parent="1" vertex="1">
          <mxGeometry x="620" y="-40" width="70" height="50" as="geometry" />
        </mxCell>
        <mxCell id="kprOfOclKuLjvvo66FYy-35" style="edgeStyle=orthogonalEdgeStyle;rounded=0;orthogonalLoop=1;jettySize=auto;html=1;entryX=0.467;entryY=1.033;entryDx=0;entryDy=0;entryPerimeter=0;endArrow=none;endFill=0;startArrow=classic;startFill=1;exitX=0;exitY=0.25;exitDx=0;exitDy=0;exitPerimeter=0;" parent="1" source="kprOfOclKuLjvvo66FYy-14" edge="1">
          <mxGeometry relative="1" as="geometry">
            <mxPoint x="710" y="160" as="sourcePoint" />
            <mxPoint x="654.0100000000002" y="8.389999999999782" as="targetPoint" />
          </mxGeometry>
        </mxCell>
        <mxCell id="kprOfOclKuLjvvo66FYy-36" value="&lt;font style=&quot;font-size: 14px;&quot;&gt;Update voice type and languages&lt;/font&gt;" style="whiteSpace=wrap;html=1;verticalAlign=top;fillColor=none;strokeColor=#ffffff;fontColor=#232F3E;sketch=0;dashed=0;fontStyle=0;" parent="1" vertex="1">
          <mxGeometry x="600" y="-90" width="120" height="40" as="geometry" />
        </mxCell>
        <mxCell id="kprOfOclKuLjvvo66FYy-37" value="1" style="ellipse;whiteSpace=wrap;html=1;aspect=fixed;strokeWidth=2;fontFamily=Tahoma;spacingBottom=4;spacingRight=2;strokeColor=#d3d3d3;" parent="1" vertex="1">
          <mxGeometry x="-1" y="470" width="20" height="20" as="geometry" />
        </mxCell>
        <mxCell id="kprOfOclKuLjvvo66FYy-38" value="&lt;font style=&quot;font-size: 14px;&quot;&gt;This solution converts text into audio files by using Amazon Polly, a cloud service that converts text to lifelike speech&amp;nbsp;&lt;/font&gt;" style="rounded=0;whiteSpace=wrap;html=1;fillColor=none;" parent="1" vertex="1">
          <mxGeometry x="20" y="470" width="190" height="90" as="geometry" />
        </mxCell>
        <mxCell id="kprOfOclKuLjvvo66FYy-39" value="2" style="ellipse;whiteSpace=wrap;html=1;aspect=fixed;strokeWidth=2;fontFamily=Tahoma;spacingBottom=4;spacingRight=2;strokeColor=#d3d3d3;" parent="1" vertex="1">
          <mxGeometry x="240" y="470" width="20" height="20" as="geometry" />
        </mxCell>
        <mxCell id="kprOfOclKuLjvvo66FYy-41" style="rounded=0;orthogonalLoop=1;jettySize=auto;html=1;exitX=0;exitY=0;exitDx=0;exitDy=0;dashed=1;dashPattern=12 12;opacity=20;" parent="1" source="kprOfOclKuLjvvo66FYy-40" target="kprOfOclKuLjvvo66FYy-1" edge="1">
          <mxGeometry relative="1" as="geometry" />
        </mxCell>
        <mxCell id="kprOfOclKuLjvvo66FYy-40" value="&lt;font style=&quot;font-size: 14px;&quot;&gt;A user uploads a text file into the input folder of an S3 bucket&lt;/font&gt;" style="rounded=0;whiteSpace=wrap;html=1;fillColor=none;" parent="1" vertex="1">
          <mxGeometry x="260" y="470" width="190" height="60" as="geometry" />
        </mxCell>
        <mxCell id="kprOfOclKuLjvvo66FYy-42" value="3" style="ellipse;whiteSpace=wrap;html=1;aspect=fixed;strokeWidth=2;fontFamily=Tahoma;spacingBottom=4;spacingRight=2;strokeColor=#d3d3d3;" parent="1" vertex="1">
          <mxGeometry x="470" y="470" width="20" height="20" as="geometry" />
        </mxCell>
        <mxCell id="kprOfOclKuLjvvo66FYy-46" style="rounded=0;orthogonalLoop=1;jettySize=auto;html=1;entryX=0.5;entryY=1;entryDx=0;entryDy=0;dashed=1;dashPattern=12 12;opacity=20;" parent="1" source="kprOfOclKuLjvvo66FYy-43" target="kprOfOclKuLjvvo66FYy-9" edge="1">
          <mxGeometry relative="1" as="geometry" />
        </mxCell>
        <mxCell id="kprOfOclKuLjvvo66FYy-43" value="&lt;font style=&quot;font-size: 14px;&quot;&gt;The S3 bucket can be configured w/ S3 event notifications that invoke a LF whenever a text file is uploaded&lt;/font&gt;" style="rounded=0;whiteSpace=wrap;html=1;fillColor=none;" parent="1" vertex="1">
          <mxGeometry x="490" y="470" width="190" height="90" as="geometry" />
        </mxCell>
        <mxCell id="kprOfOclKuLjvvo66FYy-44" style="rounded=0;orthogonalLoop=1;jettySize=auto;html=1;entryX=0.317;entryY=0.992;entryDx=0;entryDy=0;entryPerimeter=0;dashed=1;dashPattern=12 12;opacity=20;" parent="1" source="kprOfOclKuLjvvo66FYy-43" target="kprOfOclKuLjvvo66FYy-17" edge="1">
          <mxGeometry relative="1" as="geometry" />
        </mxCell>
        <mxCell id="kprOfOclKuLjvvo66FYy-45" style="rounded=0;orthogonalLoop=1;jettySize=auto;html=1;entryX=0.917;entryY=1.033;entryDx=0;entryDy=0;entryPerimeter=0;dashed=1;dashPattern=12 12;opacity=20;" parent="1" source="kprOfOclKuLjvvo66FYy-40" target="kprOfOclKuLjvvo66FYy-2" edge="1">
          <mxGeometry relative="1" as="geometry" />
        </mxCell>
        <mxCell id="kprOfOclKuLjvvo66FYy-47" value="4" style="ellipse;whiteSpace=wrap;html=1;aspect=fixed;strokeWidth=2;fontFamily=Tahoma;spacingBottom=4;spacingRight=2;strokeColor=#d3d3d3;" parent="1" vertex="1">
          <mxGeometry x="700" y="470" width="20" height="20" as="geometry" />
        </mxCell>
        <mxCell id="kprOfOclKuLjvvo66FYy-50" value="&lt;font style=&quot;font-size: 14px;&quot;&gt;The LF calls the Polly API to synthesize the provided text into a HQ speech audio stream&lt;/font&gt;" style="rounded=0;whiteSpace=wrap;html=1;fillColor=none;" parent="1" vertex="1">
          <mxGeometry x="720" y="470" width="190" height="90" as="geometry" />
        </mxCell>
        <mxCell id="kprOfOclKuLjvvo66FYy-52" style="rounded=0;orthogonalLoop=1;jettySize=auto;html=1;dashed=1;dashPattern=12 12;opacity=20;" parent="1" target="kprOfOclKuLjvvo66FYy-7" edge="1">
          <mxGeometry relative="1" as="geometry">
            <mxPoint x="513" y="470" as="sourcePoint" />
            <mxPoint x="420" y="230" as="targetPoint" />
          </mxGeometry>
        </mxCell>
        <mxCell id="kprOfOclKuLjvvo66FYy-53" style="rounded=0;orthogonalLoop=1;jettySize=auto;html=1;entryX=0.75;entryY=1;entryDx=0;entryDy=0;dashed=1;dashPattern=12 12;opacity=20;" parent="1" target="kprOfOclKuLjvvo66FYy-17" edge="1">
          <mxGeometry relative="1" as="geometry">
            <mxPoint x="798" y="470" as="sourcePoint" />
            <mxPoint x="925" y="246" as="targetPoint" />
          </mxGeometry>
        </mxCell>
        <mxCell id="kprOfOclKuLjvvo66FYy-54" style="rounded=0;orthogonalLoop=1;jettySize=auto;html=1;entryX=0;entryY=0.5;entryDx=0;entryDy=0;dashed=1;dashPattern=12 12;opacity=20;exitX=0.616;exitY=-0.021;exitDx=0;exitDy=0;exitPerimeter=0;" parent="1" source="kprOfOclKuLjvvo66FYy-50" target="kprOfOclKuLjvvo66FYy-21" edge="1">
          <mxGeometry relative="1" as="geometry">
            <mxPoint x="808" y="480" as="sourcePoint" />
            <mxPoint x="799" y="256" as="targetPoint" />
          </mxGeometry>
        </mxCell>
        <mxCell id="kprOfOclKuLjvvo66FYy-55" value="5" style="ellipse;whiteSpace=wrap;html=1;aspect=fixed;strokeWidth=2;fontFamily=Tahoma;spacingBottom=4;spacingRight=2;strokeColor=#d3d3d3;" parent="1" vertex="1">
          <mxGeometry x="930" y="470" width="20" height="20" as="geometry" />
        </mxCell>
        <mxCell id="kprOfOclKuLjvvo66FYy-56" value="&lt;font style=&quot;font-size: 14px;&quot;&gt;Amazon Polly processes the request from the LF and returns the audio file&lt;/font&gt;" style="rounded=0;whiteSpace=wrap;html=1;fillColor=none;" parent="1" vertex="1">
          <mxGeometry x="950" y="470" width="190" height="70" as="geometry" />
        </mxCell>
        <mxCell id="kprOfOclKuLjvvo66FYy-57" style="rounded=0;orthogonalLoop=1;jettySize=auto;html=1;entryX=0;entryY=0.5;entryDx=0;entryDy=0;dashed=1;dashPattern=12 12;opacity=20;exitX=0.5;exitY=0;exitDx=0;exitDy=0;" parent="1" source="kprOfOclKuLjvvo66FYy-56" edge="1">
          <mxGeometry relative="1" as="geometry">
            <mxPoint x="847" y="478" as="sourcePoint" />
            <mxPoint x="1219" y="247" as="targetPoint" />
          </mxGeometry>
        </mxCell>
        <mxCell id="kprOfOclKuLjvvo66FYy-58" style="rounded=0;orthogonalLoop=1;jettySize=auto;html=1;entryX=1;entryY=0.5;entryDx=0;entryDy=0;dashed=1;dashPattern=12 12;opacity=20;exitX=0.389;exitY=-0.065;exitDx=0;exitDy=0;exitPerimeter=0;" parent="1" source="kprOfOclKuLjvvo66FYy-56" target="kprOfOclKuLjvvo66FYy-17" edge="1">
          <mxGeometry relative="1" as="geometry">
            <mxPoint x="1055" y="480" as="sourcePoint" />
            <mxPoint x="1229" y="257" as="targetPoint" />
          </mxGeometry>
        </mxCell>
        <mxCell id="kprOfOclKuLjvvo66FYy-59" value="6" style="ellipse;whiteSpace=wrap;html=1;aspect=fixed;strokeWidth=2;fontFamily=Tahoma;spacingBottom=4;spacingRight=2;strokeColor=#d3d3d3;" parent="1" vertex="1">
          <mxGeometry x="1160" y="470" width="20" height="20" as="geometry" />
        </mxCell>
        <mxCell id="kprOfOclKuLjvvo66FYy-60" value="&lt;font style=&quot;font-size: 14px;&quot;&gt;The LF saves the synthesized audio file into the output folder of the S3 bucket&lt;/font&gt;" style="rounded=0;whiteSpace=wrap;html=1;fillColor=none;" parent="1" vertex="1">
          <mxGeometry x="1184" y="470" width="196" height="60" as="geometry" />
        </mxCell>
        <mxCell id="kprOfOclKuLjvvo66FYy-61" style="rounded=0;orthogonalLoop=1;jettySize=auto;html=1;dashed=1;dashPattern=12 12;opacity=20;exitX=0.389;exitY=-0.065;exitDx=0;exitDy=0;exitPerimeter=0;" parent="1" target="kprOfOclKuLjvvo66FYy-14" edge="1">
          <mxGeometry relative="1" as="geometry">
            <mxPoint x="1272.5" y="470" as="sourcePoint" />
            <mxPoint x="1067.5" y="239" as="targetPoint" />
          </mxGeometry>
        </mxCell>
        <mxCell id="kprOfOclKuLjvvo66FYy-62" style="rounded=0;orthogonalLoop=1;jettySize=auto;html=1;entryX=0.569;entryY=1.003;entryDx=0;entryDy=0;dashed=1;dashPattern=12 12;opacity=20;exitX=0.812;exitY=0.015;exitDx=0;exitDy=0;entryPerimeter=0;exitPerimeter=0;edgeStyle=orthogonalEdgeStyle;" parent="1" source="kprOfOclKuLjvvo66FYy-60" target="kprOfOclKuLjvvo66FYy-32" edge="1">
          <mxGeometry relative="1" as="geometry">
            <mxPoint x="1219" y="469.2" as="sourcePoint" />
            <mxPoint x="1393" y="246.2" as="targetPoint" />
            <Array as="points">
              <mxPoint x="1343" y="100" />
              <mxPoint x="1278" y="100" />
            </Array>
          </mxGeometry>
        </mxCell>
        <mxCell id="kprOfOclKuLjvvo66FYy-64" value="7" style="ellipse;whiteSpace=wrap;html=1;aspect=fixed;strokeWidth=2;fontFamily=Tahoma;spacingBottom=4;spacingRight=2;strokeColor=#d3d3d3;" parent="1" vertex="1">
          <mxGeometry y="600" width="20" height="20" as="geometry" />
        </mxCell>
        <mxCell id="kprOfOclKuLjvvo66FYy-65" value="&lt;font style=&quot;font-size: 14px;&quot;&gt;Amazon Polly provides a portfolio of languages and a variety of voices. When launching a speech synthesis task, you specify the voice and languages to use for the conversation&lt;/font&gt;" style="rounded=0;whiteSpace=wrap;html=1;fillColor=none;" parent="1" vertex="1">
          <mxGeometry x="19" y="600" width="190" height="130" as="geometry" />
        </mxCell>
        <mxCell id="kprOfOclKuLjvvo66FYy-66" style="rounded=0;orthogonalLoop=1;jettySize=auto;html=1;dashed=1;dashPattern=12 12;opacity=20;exitX=0.006;exitY=0.514;exitDx=0;exitDy=0;exitPerimeter=0;edgeStyle=orthogonalEdgeStyle;entryX=-0.011;entryY=0.576;entryDx=0;entryDy=0;entryPerimeter=0;" parent="1" source="kprOfOclKuLjvvo66FYy-65" target="kprOfOclKuLjvvo66FYy-34" edge="1">
          <mxGeometry relative="1" as="geometry">
            <mxPoint x="-17" y="670" as="sourcePoint" />
            <mxPoint x="-60" y="-20" as="targetPoint" />
            <Array as="points">
              <mxPoint x="-50" y="667" />
              <mxPoint x="-50" y="-11" />
            </Array>
          </mxGeometry>
        </mxCell>
        <mxCell id="kprOfOclKuLjvvo66FYy-67" value="&lt;font color=&quot;#707000&quot; style=&quot;font-size: 14px;&quot;&gt;PUT event explained&lt;/font&gt;&lt;div&gt;&lt;font style=&quot;font-size: 14px;&quot;&gt;When an object is created or overwritten in a bucket, triggering notifications or actions such as LF if configured&lt;/font&gt;&lt;/div&gt;" style="rounded=0;whiteSpace=wrap;html=1;fillColor=none;strokeColor=none;" parent="1" vertex="1">
          <mxGeometry x="280" y="600" width="190" height="130" as="geometry" />
        </mxCell>
        <mxCell id="kprOfOclKuLjvvo66FYy-68" value="" style="shape=image;html=1;verticalAlign=top;verticalLabelPosition=bottom;labelBackgroundColor=#ffffff;imageAspect=0;aspect=fixed;image=https://cdn3.iconfinder.com/data/icons/mix-and-miscellaneous/94/handrawn_idea_bulb_light-128.png" parent="1" vertex="1">
          <mxGeometry x="280" y="600" width="28" height="28" as="geometry" />
        </mxCell>
        <mxCell id="kprOfOclKuLjvvo66FYy-69" value="" style="shape=image;html=1;verticalAlign=top;verticalLabelPosition=bottom;labelBackgroundColor=#ffffff;imageAspect=0;aspect=fixed;image=https://cdn3.iconfinder.com/data/icons/mix-and-miscellaneous/94/handrawn_idea_bulb_light-128.png" parent="1" vertex="1">
          <mxGeometry x="521" y="600" width="28" height="28" as="geometry" />
        </mxCell>
        <mxCell id="kprOfOclKuLjvvo66FYy-70" value="&lt;font color=&quot;#707000&quot;&gt;&lt;span style=&quot;font-size: 14px;&quot;&gt;Synthesize explained&lt;/span&gt;&lt;/font&gt;&lt;div&gt;&lt;span style=&quot;font-size: 14px;&quot;&gt;To convert or transform the provided text into spoken audio&lt;/span&gt;&lt;/div&gt;" style="rounded=0;whiteSpace=wrap;html=1;fillColor=none;strokeColor=none;" parent="1" vertex="1">
          <mxGeometry x="521" y="580" width="190" height="130" as="geometry" />
        </mxCell>
      </root>
    </mxGraphModel>
  </diagram>
  <diagram id="Z_lyypNFoyGm1aidtK8y" name="S3 Sec">
    <mxGraphModel dx="1647" dy="930" grid="1" gridSize="10" guides="1" tooltips="1" connect="1" arrows="1" fold="1" page="1" pageScale="1" pageWidth="4681" pageHeight="3300" math="0" shadow="0">
      <root>
        <mxCell id="0" />
        <mxCell id="1" parent="0" />
        <mxCell id="NH8jps6fc2zT8X-Yzdii-14" style="rounded=0;orthogonalLoop=1;jettySize=auto;html=1;" edge="1" parent="1" source="NH8jps6fc2zT8X-Yzdii-1">
          <mxGeometry relative="1" as="geometry">
            <mxPoint x="320" y="190" as="targetPoint" />
            <Array as="points">
              <mxPoint x="120" y="190" />
            </Array>
          </mxGeometry>
        </mxCell>
        <mxCell id="NH8jps6fc2zT8X-Yzdii-1" value="" style="sketch=0;outlineConnect=0;fontColor=#232F3E;gradientColor=none;fillColor=#232F3D;strokeColor=none;dashed=0;verticalLabelPosition=bottom;verticalAlign=top;align=center;html=1;fontSize=12;fontStyle=0;aspect=fixed;pointerEvents=1;shape=mxgraph.aws4.users;" vertex="1" parent="1">
          <mxGeometry x="80" y="340" width="78" height="78" as="geometry" />
        </mxCell>
        <mxCell id="NH8jps6fc2zT8X-Yzdii-34" style="edgeStyle=orthogonalEdgeStyle;rounded=0;orthogonalLoop=1;jettySize=auto;html=1;" edge="1" parent="1" source="NH8jps6fc2zT8X-Yzdii-2" target="NH8jps6fc2zT8X-Yzdii-4">
          <mxGeometry relative="1" as="geometry" />
        </mxCell>
        <mxCell id="NH8jps6fc2zT8X-Yzdii-2" value="" style="image;aspect=fixed;html=1;points=[];align=center;fontSize=12;image=img/lib/azure2/general/File.svg;" vertex="1" parent="1">
          <mxGeometry x="320" y="150" width="56.00000000000001" height="69" as="geometry" />
        </mxCell>
        <mxCell id="NH8jps6fc2zT8X-Yzdii-33" style="edgeStyle=orthogonalEdgeStyle;rounded=0;orthogonalLoop=1;jettySize=auto;html=1;entryX=-0.008;entryY=0.398;entryDx=0;entryDy=0;entryPerimeter=0;" edge="1" parent="1" source="NH8jps6fc2zT8X-Yzdii-3" target="NH8jps6fc2zT8X-Yzdii-18">
          <mxGeometry relative="1" as="geometry" />
        </mxCell>
        <mxCell id="NH8jps6fc2zT8X-Yzdii-3" value="" style="image;aspect=fixed;html=1;points=[];align=center;fontSize=12;image=img/lib/azure2/general/File.svg;" vertex="1" parent="1">
          <mxGeometry x="320" y="349" width="56.00000000000001" height="69" as="geometry" />
        </mxCell>
        <mxCell id="NH8jps6fc2zT8X-Yzdii-4" value="" style="sketch=0;outlineConnect=0;fontColor=#232F3E;gradientColor=none;fillColor=#7AA116;strokeColor=none;dashed=0;verticalLabelPosition=bottom;verticalAlign=top;align=center;html=1;fontSize=12;fontStyle=0;aspect=fixed;pointerEvents=1;shape=mxgraph.aws4.bucket;" vertex="1" parent="1">
          <mxGeometry x="550" y="430" width="75" height="78" as="geometry" />
        </mxCell>
        <mxCell id="NH8jps6fc2zT8X-Yzdii-5" value="" style="sketch=0;outlineConnect=0;fontColor=#232F3E;gradientColor=none;fillColor=#7AA116;strokeColor=none;dashed=0;verticalLabelPosition=bottom;verticalAlign=top;align=center;html=1;fontSize=12;fontStyle=0;aspect=fixed;pointerEvents=1;shape=mxgraph.aws4.bucket;" vertex="1" parent="1">
          <mxGeometry x="690" y="610" width="75" height="78" as="geometry" />
        </mxCell>
        <mxCell id="NH8jps6fc2zT8X-Yzdii-6" value="" style="sketch=0;outlineConnect=0;fontColor=#232F3E;gradientColor=none;fillColor=#7AA116;strokeColor=none;dashed=0;verticalLabelPosition=bottom;verticalAlign=top;align=center;html=1;fontSize=12;fontStyle=0;aspect=fixed;pointerEvents=1;shape=mxgraph.aws4.bucket;" vertex="1" parent="1">
          <mxGeometry x="1275" y="40" width="75" height="78" as="geometry" />
        </mxCell>
        <mxCell id="NH8jps6fc2zT8X-Yzdii-7" value="" style="sketch=0;outlineConnect=0;fontColor=#232F3E;gradientColor=none;fillColor=#7AA116;strokeColor=none;dashed=0;verticalLabelPosition=bottom;verticalAlign=top;align=center;html=1;fontSize=12;fontStyle=0;aspect=fixed;pointerEvents=1;shape=mxgraph.aws4.glacier_deep_archive;" vertex="1" parent="1">
          <mxGeometry x="1390" y="418" width="75" height="78" as="geometry" />
        </mxCell>
        <mxCell id="NH8jps6fc2zT8X-Yzdii-32" style="edgeStyle=orthogonalEdgeStyle;rounded=0;orthogonalLoop=1;jettySize=auto;html=1;" edge="1" parent="1" source="NH8jps6fc2zT8X-Yzdii-12" target="NH8jps6fc2zT8X-Yzdii-23">
          <mxGeometry relative="1" as="geometry" />
        </mxCell>
        <mxCell id="NH8jps6fc2zT8X-Yzdii-12" value="" style="outlineConnect=0;dashed=0;verticalLabelPosition=bottom;verticalAlign=top;align=center;html=1;shape=mxgraph.aws3.data_encryption_key;fillColor=#7D7C7C;gradientColor=none;" vertex="1" parent="1">
          <mxGeometry x="830" y="358" width="46.5" height="60" as="geometry" />
        </mxCell>
        <mxCell id="NH8jps6fc2zT8X-Yzdii-13" style="edgeStyle=orthogonalEdgeStyle;rounded=0;orthogonalLoop=1;jettySize=auto;html=1;entryX=0.028;entryY=0.448;entryDx=0;entryDy=0;entryPerimeter=0;" edge="1" parent="1" source="NH8jps6fc2zT8X-Yzdii-1" target="NH8jps6fc2zT8X-Yzdii-3">
          <mxGeometry relative="1" as="geometry" />
        </mxCell>
        <mxCell id="NH8jps6fc2zT8X-Yzdii-15" value="&lt;font style=&quot;font-size: 14px;&quot;&gt;Records file&lt;/font&gt;" style="whiteSpace=wrap;html=1;verticalAlign=top;labelBackgroundColor=default;fillColor=none;" vertex="1" parent="1">
          <mxGeometry x="304" y="230" width="88" height="30" as="geometry" />
        </mxCell>
        <mxCell id="NH8jps6fc2zT8X-Yzdii-17" value="&lt;font style=&quot;font-size: 14px;&quot;&gt;Updated record file&lt;/font&gt;" style="whiteSpace=wrap;html=1;verticalAlign=top;labelBackgroundColor=default;fillColor=none;" vertex="1" parent="1">
          <mxGeometry x="304" y="428" width="88" height="42" as="geometry" />
        </mxCell>
        <mxCell id="NH8jps6fc2zT8X-Yzdii-38" style="edgeStyle=orthogonalEdgeStyle;rounded=0;orthogonalLoop=1;jettySize=auto;html=1;" edge="1" parent="1" source="NH8jps6fc2zT8X-Yzdii-18" target="NH8jps6fc2zT8X-Yzdii-5">
          <mxGeometry relative="1" as="geometry" />
        </mxCell>
        <mxCell id="NH8jps6fc2zT8X-Yzdii-18" value="&lt;font style=&quot;font-size: 14px;&quot;&gt;S3 bucket&lt;/font&gt;&lt;div style=&quot;font-size: 14px;&quot;&gt;&lt;font style=&quot;font-size: 14px;&quot;&gt;(primary)&lt;/font&gt;&lt;/div&gt;" style="whiteSpace=wrap;html=1;verticalAlign=top;fillColor=none;strokeColor=none;fontColor=#232F3E;sketch=0;gradientColor=none;dashed=0;fontStyle=0;pointerEvents=1;" vertex="1" parent="1">
          <mxGeometry x="550.01" y="508" width="77.5" height="60" as="geometry" />
        </mxCell>
        <mxCell id="NH8jps6fc2zT8X-Yzdii-20" value="&lt;font style=&quot;font-size: 14px;&quot;&gt;Amazon S3 managed encryption key&lt;/font&gt;" style="whiteSpace=wrap;html=1;verticalAlign=top;fillColor=none;dashed=0;gradientColor=none;strokeColor=none;" vertex="1" parent="1">
          <mxGeometry x="793.25" y="428" width="120" height="60" as="geometry" />
        </mxCell>
        <mxCell id="NH8jps6fc2zT8X-Yzdii-22" value="&lt;font style=&quot;font-size: 14px;&quot;&gt;S3 bucket&lt;/font&gt;&lt;div style=&quot;font-size: 14px;&quot;&gt;&lt;font style=&quot;font-size: 14px;&quot;&gt;(logs)&lt;/font&gt;&lt;/div&gt;" style="whiteSpace=wrap;html=1;verticalAlign=top;fillColor=none;strokeColor=none;fontColor=#232F3E;sketch=0;gradientColor=none;dashed=0;fontStyle=0;pointerEvents=1;" vertex="1" parent="1">
          <mxGeometry x="670" y="688" width="120" height="60" as="geometry" />
        </mxCell>
        <mxCell id="NH8jps6fc2zT8X-Yzdii-31" style="edgeStyle=orthogonalEdgeStyle;rounded=0;orthogonalLoop=1;jettySize=auto;html=1;" edge="1" parent="1" source="NH8jps6fc2zT8X-Yzdii-23" target="NH8jps6fc2zT8X-Yzdii-26">
          <mxGeometry relative="1" as="geometry" />
        </mxCell>
        <mxCell id="NH8jps6fc2zT8X-Yzdii-23" value="" style="sketch=0;outlineConnect=0;fontColor=#232F3E;gradientColor=none;fillColor=#DD344C;strokeColor=none;dashed=0;verticalLabelPosition=bottom;verticalAlign=top;align=center;html=1;fontSize=12;fontStyle=0;aspect=fixed;pointerEvents=1;shape=mxgraph.aws4.data_encryption_key;" vertex="1" parent="1">
          <mxGeometry x="1130" y="349" width="62" height="78" as="geometry" />
        </mxCell>
        <mxCell id="NH8jps6fc2zT8X-Yzdii-24" value="&lt;font style=&quot;font-size: 14px;&quot;&gt;Encrypted records file&lt;/font&gt;" style="whiteSpace=wrap;html=1;verticalAlign=top;fillColor=none;strokeColor=none;fontColor=#232F3E;sketch=0;gradientColor=none;dashed=0;fontStyle=0;pointerEvents=1;" vertex="1" parent="1">
          <mxGeometry x="1101" y="439" width="120" height="41" as="geometry" />
        </mxCell>
        <mxCell id="NH8jps6fc2zT8X-Yzdii-26" value="&lt;font style=&quot;font-size: 14px;&quot;&gt;S3 bucket&lt;/font&gt;&lt;div style=&quot;font-size: 14px;&quot;&gt;&lt;font style=&quot;font-size: 14px;&quot;&gt;(replication)&lt;/font&gt;&lt;/div&gt;" style="whiteSpace=wrap;html=1;verticalAlign=top;fillColor=none;strokeColor=none;fontColor=#232F3E;sketch=0;gradientColor=none;dashed=0;fontStyle=0;pointerEvents=1;" vertex="1" parent="1">
          <mxGeometry x="1252.5" y="120" width="120" height="60" as="geometry" />
        </mxCell>
        <mxCell id="NH8jps6fc2zT8X-Yzdii-30" value="&lt;span style=&quot;font-size: 14px;&quot;&gt;S3 Glacier Deep Archive&lt;/span&gt;" style="whiteSpace=wrap;html=1;verticalAlign=top;fillColor=none;strokeColor=none;fontColor=#232F3E;sketch=0;gradientColor=none;dashed=0;fontStyle=0;pointerEvents=1;" vertex="1" parent="1">
          <mxGeometry x="1367.5" y="496" width="120" height="60" as="geometry" />
        </mxCell>
        <mxCell id="NH8jps6fc2zT8X-Yzdii-36" style="edgeStyle=orthogonalEdgeStyle;rounded=0;orthogonalLoop=1;jettySize=auto;html=1;entryX=0;entryY=0.5;entryDx=0;entryDy=0;entryPerimeter=0;" edge="1" parent="1" source="NH8jps6fc2zT8X-Yzdii-4" target="NH8jps6fc2zT8X-Yzdii-12">
          <mxGeometry relative="1" as="geometry" />
        </mxCell>
        <mxCell id="NH8jps6fc2zT8X-Yzdii-39" value="1" style="ellipse;whiteSpace=wrap;html=1;aspect=fixed;strokeWidth=2;fontFamily=Tahoma;spacingBottom=4;spacingRight=2;strokeColor=#d3d3d3;" vertex="1" parent="1">
          <mxGeometry x="40" y="760" width="20" height="20" as="geometry" />
        </mxCell>
        <mxCell id="NH8jps6fc2zT8X-Yzdii-40" value="&lt;font style=&quot;font-size: 14px;&quot;&gt;This solution uses S3 encryption, versioning and replication to help data from unauthorized access and accidental edits or deletion&lt;/font&gt;" style="whiteSpace=wrap;html=1;verticalAlign=top;labelBackgroundColor=default;fillColor=none;" vertex="1" parent="1">
          <mxGeometry x="60" y="760" width="200" height="100" as="geometry" />
        </mxCell>
        <mxCell id="cPqK7pihvBUau3ACVYa4-1" value="2" style="ellipse;whiteSpace=wrap;html=1;aspect=fixed;strokeWidth=2;fontFamily=Tahoma;spacingBottom=4;spacingRight=2;strokeColor=#d3d3d3;" vertex="1" parent="1">
          <mxGeometry x="284" y="760" width="20" height="20" as="geometry" />
        </mxCell>
        <mxCell id="cPqK7pihvBUau3ACVYa4-2" value="&lt;font style=&quot;font-size: 14px;&quot;&gt;A user creates a records file, containing private information, and uploads the file to the primary S3 bucket&lt;/font&gt;" style="whiteSpace=wrap;html=1;verticalAlign=top;labelBackgroundColor=default;fillColor=none;" vertex="1" parent="1">
          <mxGeometry x="304" y="760" width="200" height="80" as="geometry" />
        </mxCell>
        <mxCell id="3e9qerrV_aV7SKsY1tr3-1" style="rounded=0;orthogonalLoop=1;jettySize=auto;html=1;dashed=1;dashPattern=12 12;opacity=20;" edge="1" parent="1" target="NH8jps6fc2zT8X-Yzdii-18">
          <mxGeometry relative="1" as="geometry">
            <mxPoint x="404" y="760" as="sourcePoint" />
            <mxPoint x="184" y="502" as="targetPoint" />
          </mxGeometry>
        </mxCell>
        <mxCell id="3e9qerrV_aV7SKsY1tr3-2" style="rounded=0;orthogonalLoop=1;jettySize=auto;html=1;dashed=1;dashPattern=12 12;opacity=20;exitX=0.433;exitY=-0.005;exitDx=0;exitDy=0;exitPerimeter=0;" edge="1" parent="1" source="cPqK7pihvBUau3ACVYa4-2" target="NH8jps6fc2zT8X-Yzdii-15">
          <mxGeometry relative="1" as="geometry">
            <mxPoint x="340" y="770" as="sourcePoint" />
            <mxPoint x="500" y="578" as="targetPoint" />
          </mxGeometry>
        </mxCell>
        <mxCell id="3e9qerrV_aV7SKsY1tr3-3" value="3" style="ellipse;whiteSpace=wrap;html=1;aspect=fixed;strokeWidth=2;fontFamily=Tahoma;spacingBottom=4;spacingRight=2;strokeColor=#d3d3d3;" vertex="1" parent="1">
          <mxGeometry x="530.01" y="760" width="20" height="20" as="geometry" />
        </mxCell>
        <mxCell id="3e9qerrV_aV7SKsY1tr3-4" value="&lt;font style=&quot;font-size: 14px;&quot;&gt;As it is saved to the S3 bucket, the file is encrypted using SSE w/ S3 managed keys&lt;/font&gt;" style="whiteSpace=wrap;html=1;verticalAlign=top;labelBackgroundColor=default;fillColor=none;" vertex="1" parent="1">
          <mxGeometry x="550" y="760" width="200" height="60" as="geometry" />
        </mxCell>
        <mxCell id="3e9qerrV_aV7SKsY1tr3-6" style="rounded=0;orthogonalLoop=1;jettySize=auto;html=1;dashed=1;dashPattern=12 12;opacity=20;exitX=1;exitY=0.5;exitDx=0;exitDy=0;entryX=0.5;entryY=1;entryDx=0;entryDy=0;" edge="1" parent="1" source="3e9qerrV_aV7SKsY1tr3-4" target="NH8jps6fc2zT8X-Yzdii-20">
          <mxGeometry relative="1" as="geometry">
            <mxPoint x="840" y="790" as="sourcePoint" />
            <mxPoint x="913.25" y="600" as="targetPoint" />
            <Array as="points">
              <mxPoint x="840" y="640" />
            </Array>
          </mxGeometry>
        </mxCell>
        <mxCell id="3e9qerrV_aV7SKsY1tr3-7" value="4" style="ellipse;whiteSpace=wrap;html=1;aspect=fixed;strokeWidth=2;fontFamily=Tahoma;spacingBottom=4;spacingRight=2;strokeColor=#d3d3d3;" vertex="1" parent="1">
          <mxGeometry x="773.25" y="760" width="20" height="20" as="geometry" />
        </mxCell>
        <mxCell id="3e9qerrV_aV7SKsY1tr3-10" value="&lt;font style=&quot;font-size: 14px;&quot;&gt;With server access logging enabled, all requests to the primary S3 bucket are logged to another S3 bucket, which can be used for security and access audits&lt;/font&gt;" style="whiteSpace=wrap;html=1;verticalAlign=top;labelBackgroundColor=default;fillColor=none;" vertex="1" parent="1">
          <mxGeometry x="793.25" y="760" width="200" height="110" as="geometry" />
        </mxCell>
        <mxCell id="3e9qerrV_aV7SKsY1tr3-11" style="rounded=0;orthogonalLoop=1;jettySize=auto;html=1;dashed=1;dashPattern=12 12;opacity=20;entryX=0.75;entryY=1;entryDx=0;entryDy=0;" edge="1" parent="1" target="NH8jps6fc2zT8X-Yzdii-18">
          <mxGeometry relative="1" as="geometry">
            <mxPoint x="876.5" y="755" as="sourcePoint" />
            <mxPoint x="1036.5" y="563" as="targetPoint" />
          </mxGeometry>
        </mxCell>
        <mxCell id="3e9qerrV_aV7SKsY1tr3-12" style="rounded=0;orthogonalLoop=1;jettySize=auto;html=1;dashed=1;dashPattern=12 12;opacity=20;exitX=0.562;exitY=-0.044;exitDx=0;exitDy=0;exitPerimeter=0;" edge="1" parent="1" source="3e9qerrV_aV7SKsY1tr3-10" target="NH8jps6fc2zT8X-Yzdii-5">
          <mxGeometry relative="1" as="geometry">
            <mxPoint x="1020" y="660" as="sourcePoint" />
            <mxPoint x="800" y="402" as="targetPoint" />
          </mxGeometry>
        </mxCell>
        <mxCell id="3e9qerrV_aV7SKsY1tr3-13" value="5" style="ellipse;whiteSpace=wrap;html=1;aspect=fixed;strokeWidth=2;fontFamily=Tahoma;spacingBottom=4;spacingRight=2;strokeColor=#d3d3d3;" vertex="1" parent="1">
          <mxGeometry x="1010" y="760" width="20" height="20" as="geometry" />
        </mxCell>
        <mxCell id="3e9qerrV_aV7SKsY1tr3-15" value="&lt;font style=&quot;font-size: 14px;&quot;&gt;With live replication enabled, S3 will automatically replicate new objects to another bucket as they are written to the primary bucket&lt;/font&gt;" style="whiteSpace=wrap;html=1;verticalAlign=top;labelBackgroundColor=default;fillColor=none;" vertex="1" parent="1">
          <mxGeometry x="1030" y="760" width="200" height="95" as="geometry" />
        </mxCell>
        <mxCell id="3e9qerrV_aV7SKsY1tr3-16" style="rounded=0;orthogonalLoop=1;jettySize=auto;html=1;entryX=0.75;entryY=1;entryDx=0;entryDy=0;dashed=1;dashPattern=12 12;opacity=20;exitX=0.548;exitY=-0.051;exitDx=0;exitDy=0;exitPerimeter=0;" edge="1" parent="1" source="3e9qerrV_aV7SKsY1tr3-15" target="NH8jps6fc2zT8X-Yzdii-26">
          <mxGeometry relative="1" as="geometry">
            <mxPoint x="1170" y="700" as="sourcePoint" />
            <mxPoint x="950" y="442" as="targetPoint" />
            <Array as="points">
              <mxPoint x="1360" y="560" />
            </Array>
          </mxGeometry>
        </mxCell>
        <mxCell id="3e9qerrV_aV7SKsY1tr3-17" value="6" style="ellipse;whiteSpace=wrap;html=1;aspect=fixed;strokeWidth=2;fontFamily=Tahoma;spacingBottom=4;spacingRight=2;strokeColor=#d3d3d3;" vertex="1" parent="1">
          <mxGeometry x="1255" y="760" width="20" height="20" as="geometry" />
        </mxCell>
        <mxCell id="3e9qerrV_aV7SKsY1tr3-19" value="&lt;font style=&quot;font-size: 14px;&quot;&gt;With versioning enabled, when a user changes a file and re-uploads the file to the primary bucket, the existing file becomes the previous version, and the newly uploaded file becomes the current version&lt;/font&gt;" style="whiteSpace=wrap;html=1;verticalAlign=top;labelBackgroundColor=default;fillColor=none;" vertex="1" parent="1">
          <mxGeometry x="1275" y="760" width="200" height="125" as="geometry" />
        </mxCell>
        <mxCell id="3e9qerrV_aV7SKsY1tr3-20" value="7" style="ellipse;whiteSpace=wrap;html=1;aspect=fixed;strokeWidth=2;fontFamily=Tahoma;spacingBottom=4;spacingRight=2;strokeColor=#d3d3d3;" vertex="1" parent="1">
          <mxGeometry x="40" y="920" width="20" height="20" as="geometry" />
        </mxCell>
        <mxCell id="3e9qerrV_aV7SKsY1tr3-21" value="&lt;font style=&quot;font-size: 14px;&quot;&gt;S3 Lifecycle rules are used to transition the pervious version of the file to a less expensive storage class for archiving&lt;/font&gt;" style="whiteSpace=wrap;html=1;verticalAlign=top;labelBackgroundColor=default;fillColor=none;" vertex="1" parent="1">
          <mxGeometry x="60" y="920" width="200" height="80" as="geometry" />
        </mxCell>
        <mxCell id="3e9qerrV_aV7SKsY1tr3-22" style="rounded=0;orthogonalLoop=1;jettySize=auto;html=1;dashed=1;dashPattern=12 12;opacity=20;exitX=1;exitY=0.5;exitDx=0;exitDy=0;startArrow=none;startFill=0;endArrow=none;endFill=0;" edge="1" parent="1" source="3e9qerrV_aV7SKsY1tr3-21">
          <mxGeometry relative="1" as="geometry">
            <mxPoint x="420" y="960" as="sourcePoint" />
            <mxPoint x="1520" y="490" as="targetPoint" />
            <Array as="points">
              <mxPoint x="1520" y="960" />
            </Array>
          </mxGeometry>
        </mxCell>
        <mxCell id="3e9qerrV_aV7SKsY1tr3-23" style="rounded=0;orthogonalLoop=1;jettySize=auto;html=1;dashed=1;dashPattern=12 12;opacity=20;" edge="1" parent="1">
          <mxGeometry relative="1" as="geometry">
            <mxPoint x="1520" y="490" as="sourcePoint" />
            <mxPoint x="1480" y="490" as="targetPoint" />
          </mxGeometry>
        </mxCell>
      </root>
    </mxGraphModel>
  </diagram>
  <diagram id="KXnmImHf6g6ODWtZ8hxc" name="Intelligent EC2 Monitoring">
    <mxGraphModel dx="1734" dy="979" grid="1" gridSize="10" guides="1" tooltips="1" connect="1" arrows="1" fold="1" page="1" pageScale="1" pageWidth="4681" pageHeight="3300" math="0" shadow="0">
      <root>
        <mxCell id="0" />
        <mxCell id="1" parent="0" />
        <mxCell id="X_uQZ4Hej6ZKos3-FbRU-1" value="" style="sketch=0;points=[[0,0,0],[0.25,0,0],[0.5,0,0],[0.75,0,0],[1,0,0],[0,1,0],[0.25,1,0],[0.5,1,0],[0.75,1,0],[1,1,0],[0,0.25,0],[0,0.5,0],[0,0.75,0],[1,0.25,0],[1,0.5,0],[1,0.75,0]];outlineConnect=0;fontColor=#232F3E;fillColor=#01A88D;strokeColor=#ffffff;dashed=0;verticalLabelPosition=bottom;verticalAlign=top;align=center;html=1;fontSize=12;fontStyle=0;aspect=fixed;shape=mxgraph.aws4.resourceIcon;resIcon=mxgraph.aws4.codewhisperer;" vertex="1" parent="1">
          <mxGeometry x="620" y="170" width="78" height="78" as="geometry" />
        </mxCell>
        <mxCell id="X_uQZ4Hej6ZKos3-FbRU-2" value="" style="outlineConnect=0;dashed=0;verticalLabelPosition=bottom;verticalAlign=top;align=center;html=1;shape=mxgraph.aws3.ec2;fillColor=#F58534;gradientColor=none;" vertex="1" parent="1">
          <mxGeometry x="1280" y="540" width="76.5" height="93" as="geometry" />
        </mxCell>
        <mxCell id="X_uQZ4Hej6ZKos3-FbRU-3" value="" style="outlineConnect=0;dashed=0;verticalLabelPosition=bottom;verticalAlign=top;align=center;html=1;shape=mxgraph.aws3.ec2;fillColor=#F58534;gradientColor=none;" vertex="1" parent="1">
          <mxGeometry x="1280" y="387" width="76.5" height="93" as="geometry" />
        </mxCell>
        <mxCell id="X_uQZ4Hej6ZKos3-FbRU-4" value="" style="outlineConnect=0;dashed=0;verticalLabelPosition=bottom;verticalAlign=top;align=center;html=1;shape=mxgraph.aws3.ec2;fillColor=#F58534;gradientColor=none;" vertex="1" parent="1">
          <mxGeometry x="1280" y="230" width="76.5" height="93" as="geometry" />
        </mxCell>
        <mxCell id="X_uQZ4Hej6ZKos3-FbRU-5" value="" style="outlineConnect=0;dashed=0;verticalLabelPosition=bottom;verticalAlign=top;align=center;html=1;shape=mxgraph.aws3.ec2;fillColor=#F58534;gradientColor=none;" vertex="1" parent="1">
          <mxGeometry x="1280" y="90" width="76.5" height="93" as="geometry" />
        </mxCell>
        <mxCell id="X_uQZ4Hej6ZKos3-FbRU-6" value="" style="rounded=0;whiteSpace=wrap;html=1;fillColor=none;strokeColor=#0f3dc7;" vertex="1" parent="1">
          <mxGeometry x="1261.5" y="70" width="120" height="600" as="geometry" />
        </mxCell>
        <mxCell id="X_uQZ4Hej6ZKos3-FbRU-7" value="&lt;font style=&quot;font-size: 14px;&quot;&gt;EC2 Instance&lt;/font&gt;" style="text;html=1;align=center;verticalAlign=middle;resizable=0;points=[];autosize=1;strokeColor=none;fillColor=none;" vertex="1" parent="1">
          <mxGeometry x="1263.25" y="320" width="110" height="30" as="geometry" />
        </mxCell>
        <mxCell id="X_uQZ4Hej6ZKos3-FbRU-8" value="&lt;font style=&quot;font-size: 14px;&quot;&gt;EC2 Instance&lt;/font&gt;" style="text;html=1;align=center;verticalAlign=middle;resizable=0;points=[];autosize=1;strokeColor=none;fillColor=none;" vertex="1" parent="1">
          <mxGeometry x="1266.5" y="183" width="110" height="30" as="geometry" />
        </mxCell>
        <mxCell id="X_uQZ4Hej6ZKos3-FbRU-9" value="&lt;span style=&quot;font-size: 14px;&quot;&gt;EC2 Instance&lt;/span&gt;" style="text;html=1;align=center;verticalAlign=middle;resizable=0;points=[];autosize=1;strokeColor=none;fillColor=none;" vertex="1" parent="1">
          <mxGeometry x="1263.25" y="633" width="110" height="30" as="geometry" />
        </mxCell>
        <mxCell id="X_uQZ4Hej6ZKos3-FbRU-10" value="&lt;font style=&quot;font-size: 14px;&quot;&gt;EC2 Instance&lt;/font&gt;" style="text;html=1;align=center;verticalAlign=middle;resizable=0;points=[];autosize=1;strokeColor=none;fillColor=none;" vertex="1" parent="1">
          <mxGeometry x="1263.25" y="480" width="110" height="30" as="geometry" />
        </mxCell>
        <mxCell id="X_uQZ4Hej6ZKos3-FbRU-30" style="edgeStyle=orthogonalEdgeStyle;rounded=0;orthogonalLoop=1;jettySize=auto;html=1;exitX=1;exitY=0.5;exitDx=0;exitDy=0;exitPerimeter=0;" edge="1" parent="1" source="X_uQZ4Hej6ZKos3-FbRU-11">
          <mxGeometry relative="1" as="geometry">
            <mxPoint x="1250" y="350" as="targetPoint" />
          </mxGeometry>
        </mxCell>
        <mxCell id="X_uQZ4Hej6ZKos3-FbRU-11" value="" style="outlineConnect=0;dashed=0;verticalLabelPosition=bottom;verticalAlign=top;align=center;html=1;shape=mxgraph.aws3.lambda_function;fillColor=#F58534;gradientColor=none;" vertex="1" parent="1">
          <mxGeometry x="880" y="315" width="69" height="72" as="geometry" />
        </mxCell>
        <mxCell id="X_uQZ4Hej6ZKos3-FbRU-15" style="edgeStyle=orthogonalEdgeStyle;rounded=0;orthogonalLoop=1;jettySize=auto;html=1;" edge="1" parent="1" source="X_uQZ4Hej6ZKos3-FbRU-12" target="X_uQZ4Hej6ZKos3-FbRU-11">
          <mxGeometry relative="1" as="geometry" />
        </mxCell>
        <mxCell id="X_uQZ4Hej6ZKos3-FbRU-12" value="" style="sketch=0;points=[[0,0,0],[0.25,0,0],[0.5,0,0],[0.75,0,0],[1,0,0],[0,1,0],[0.25,1,0],[0.5,1,0],[0.75,1,0],[1,1,0],[0,0.25,0],[0,0.5,0],[0,0.75,0],[1,0.25,0],[1,0.5,0],[1,0.75,0]];outlineConnect=0;fontColor=#232F3E;fillColor=#ED7100;strokeColor=#ffffff;dashed=0;verticalLabelPosition=bottom;verticalAlign=top;align=center;html=1;fontSize=12;fontStyle=0;aspect=fixed;shape=mxgraph.aws4.resourceIcon;resIcon=mxgraph.aws4.lambda;" vertex="1" parent="1">
          <mxGeometry x="370" y="312" width="78" height="78" as="geometry" />
        </mxCell>
        <mxCell id="X_uQZ4Hej6ZKos3-FbRU-13" value="" style="sketch=0;outlineConnect=0;fontColor=#232F3E;gradientColor=none;fillColor=#DD344C;strokeColor=none;dashed=0;verticalLabelPosition=bottom;verticalAlign=top;align=center;html=1;fontSize=12;fontStyle=0;aspect=fixed;pointerEvents=1;shape=mxgraph.aws4.permissions;" vertex="1" parent="1">
          <mxGeometry x="130" y="90" width="62" height="78" as="geometry" />
        </mxCell>
        <mxCell id="X_uQZ4Hej6ZKos3-FbRU-14" style="edgeStyle=orthogonalEdgeStyle;rounded=0;orthogonalLoop=1;jettySize=auto;html=1;entryX=0.5;entryY=0;entryDx=0;entryDy=0;entryPerimeter=0;" edge="1" parent="1" source="X_uQZ4Hej6ZKos3-FbRU-13" target="X_uQZ4Hej6ZKos3-FbRU-12">
          <mxGeometry relative="1" as="geometry" />
        </mxCell>
        <mxCell id="X_uQZ4Hej6ZKos3-FbRU-16" style="edgeStyle=orthogonalEdgeStyle;rounded=0;orthogonalLoop=1;jettySize=auto;html=1;entryX=0.5;entryY=0;entryDx=0;entryDy=0;entryPerimeter=0;" edge="1" parent="1" source="X_uQZ4Hej6ZKos3-FbRU-1" target="X_uQZ4Hej6ZKos3-FbRU-11">
          <mxGeometry relative="1" as="geometry" />
        </mxCell>
        <mxCell id="X_uQZ4Hej6ZKos3-FbRU-18" value="&lt;font style=&quot;font-size: 14px;&quot;&gt;Add policy&lt;/font&gt;" style="rounded=0;whiteSpace=wrap;html=1;" vertex="1" parent="1">
          <mxGeometry x="270" y="114" width="80" height="30" as="geometry" />
        </mxCell>
        <mxCell id="X_uQZ4Hej6ZKos3-FbRU-19" value="&lt;font style=&quot;font-size: 14px;&quot;&gt;Create function&lt;/font&gt;" style="rounded=0;whiteSpace=wrap;html=1;" vertex="1" parent="1">
          <mxGeometry x="590" y="333" width="80" height="37" as="geometry" />
        </mxCell>
        <mxCell id="X_uQZ4Hej6ZKos3-FbRU-21" value="&lt;font style=&quot;font-size: 14px;&quot;&gt;Make suggestions&lt;/font&gt;" style="rounded=0;whiteSpace=wrap;html=1;" vertex="1" parent="1">
          <mxGeometry x="760" y="190" width="80" height="40" as="geometry" />
        </mxCell>
        <mxCell id="X_uQZ4Hej6ZKos3-FbRU-22" value="&lt;font style=&quot;font-size: 14px;&quot;&gt;Monitor instances&lt;/font&gt;" style="rounded=0;whiteSpace=wrap;html=1;" vertex="1" parent="1">
          <mxGeometry x="990" y="328.5" width="80" height="40" as="geometry" />
        </mxCell>
        <mxCell id="X_uQZ4Hej6ZKos3-FbRU-24" value="&lt;font style=&quot;font-size: 14px;&quot;&gt;Check instance type&lt;/font&gt;" style="rounded=0;whiteSpace=wrap;html=1;" vertex="1" parent="1">
          <mxGeometry x="1110" y="322" width="80" height="53" as="geometry" />
        </mxCell>
        <mxCell id="X_uQZ4Hej6ZKos3-FbRU-26" value="&lt;font style=&quot;font-size: 14px;&quot;&gt;Lambda&amp;nbsp;&lt;/font&gt;&lt;div&gt;&lt;font style=&quot;font-size: 14px;&quot;&gt;function&lt;/font&gt;&lt;/div&gt;" style="whiteSpace=wrap;html=1;verticalAlign=top;fillColor=none;dashed=0;gradientColor=none;strokeColor=none;" vertex="1" parent="1">
          <mxGeometry x="854.5" y="390" width="120" height="40" as="geometry" />
        </mxCell>
        <mxCell id="X_uQZ4Hej6ZKos3-FbRU-31" value="&lt;span style=&quot;font-size: 14px;&quot;&gt;AWS Lambda&lt;/span&gt;" style="whiteSpace=wrap;html=1;verticalAlign=top;fillColor=none;dashed=0;gradientColor=none;strokeColor=none;" vertex="1" parent="1">
          <mxGeometry x="350" y="390" width="120" height="30" as="geometry" />
        </mxCell>
        <mxCell id="X_uQZ4Hej6ZKos3-FbRU-32" value="&lt;span style=&quot;font-size: 14px;&quot;&gt;Amazon CodeWhisperer&lt;/span&gt;" style="whiteSpace=wrap;html=1;verticalAlign=top;fillColor=none;dashed=0;gradientColor=none;strokeColor=none;" vertex="1" parent="1">
          <mxGeometry x="599" y="248" width="120" height="30" as="geometry" />
        </mxCell>
        <mxCell id="X_uQZ4Hej6ZKos3-FbRU-33" value="&lt;span style=&quot;font-size: 14px;&quot;&gt;CodeWhisperer IAM policy&lt;/span&gt;" style="whiteSpace=wrap;html=1;verticalAlign=top;fillColor=none;dashed=0;gradientColor=none;strokeColor=none;" vertex="1" parent="1">
          <mxGeometry x="101" y="168" width="120" height="30" as="geometry" />
        </mxCell>
        <mxCell id="X_uQZ4Hej6ZKos3-FbRU-34" value="1" style="ellipse;whiteSpace=wrap;html=1;aspect=fixed;strokeWidth=2;fontFamily=Tahoma;spacingBottom=4;spacingRight=2;strokeColor=#d3d3d3;" vertex="1" parent="1">
          <mxGeometry x="70" y="520" width="20" height="20" as="geometry" />
        </mxCell>
        <mxCell id="X_uQZ4Hej6ZKos3-FbRU-35" value="&lt;font style=&quot;font-size: 14px;&quot;&gt;This solution uses an AWS Lambda function, created in part with Amazon CodeWhisperer, to monitor and help prevent unauthorized use of a fleet of EC2 instances. CodeWhisperer is a GP, ML powered code generator that provides code recommendations to developers in real time.&lt;/font&gt;" style="rounded=0;whiteSpace=wrap;html=1;" vertex="1" parent="1">
          <mxGeometry x="90" y="520" width="200" height="190" as="geometry" />
        </mxCell>
        <mxCell id="X_uQZ4Hej6ZKos3-FbRU-36" value="2" style="ellipse;whiteSpace=wrap;html=1;aspect=fixed;strokeWidth=2;fontFamily=Tahoma;spacingBottom=4;spacingRight=2;strokeColor=#d3d3d3;" vertex="1" parent="1">
          <mxGeometry x="310" y="520" width="20" height="20" as="geometry" />
        </mxCell>
        <mxCell id="X_uQZ4Hej6ZKos3-FbRU-37" value="&lt;font style=&quot;font-size: 14px;&quot;&gt;First, an AWS IAM policy is added that allows CodeWhisperer to give code suggestions, in the Lambda editor, to the Lambda role&lt;/font&gt;" style="rounded=0;whiteSpace=wrap;html=1;" vertex="1" parent="1">
          <mxGeometry x="330" y="520" width="200" height="90" as="geometry" />
        </mxCell>
        <mxCell id="X_uQZ4Hej6ZKos3-FbRU-39" value="3" style="ellipse;whiteSpace=wrap;html=1;aspect=fixed;strokeWidth=2;fontFamily=Tahoma;spacingBottom=4;spacingRight=2;strokeColor=#d3d3d3;" vertex="1" parent="1">
          <mxGeometry x="560" y="520" width="20" height="20" as="geometry" />
        </mxCell>
        <mxCell id="X_uQZ4Hej6ZKos3-FbRU-40" value="&lt;font style=&quot;font-size: 14px;&quot;&gt;Developers then enable CodeWhisperer suggestions in the Lambda code editor and create a basic Lambda function&lt;/font&gt;" style="rounded=0;whiteSpace=wrap;html=1;" vertex="1" parent="1">
          <mxGeometry x="580" y="520" width="200" height="80" as="geometry" />
        </mxCell>
        <mxCell id="X_uQZ4Hej6ZKos3-FbRU-41" value="4" style="ellipse;whiteSpace=wrap;html=1;aspect=fixed;strokeWidth=2;fontFamily=Tahoma;spacingBottom=4;spacingRight=2;strokeColor=#d3d3d3;" vertex="1" parent="1">
          <mxGeometry x="820" y="520" width="20" height="20" as="geometry" />
        </mxCell>
        <mxCell id="X_uQZ4Hej6ZKos3-FbRU-42" value="&lt;font style=&quot;font-size: 14px;&quot;&gt;As the developers write code in Lambda, CodeWhisperer automatically generates suggestions based on existing code and comments. The personalized recommendations can vary in size and scope, ranging from a single line comment to fully formed functions&lt;/font&gt;" style="rounded=0;whiteSpace=wrap;html=1;" vertex="1" parent="1">
          <mxGeometry x="840" y="520" width="200" height="180" as="geometry" />
        </mxCell>
        <mxCell id="X_uQZ4Hej6ZKos3-FbRU-43" style="edgeStyle=orthogonalEdgeStyle;rounded=0;orthogonalLoop=1;jettySize=auto;html=1;exitX=0.5;exitY=1;exitDx=0;exitDy=0;" edge="1" parent="1" source="X_uQZ4Hej6ZKos3-FbRU-6" target="X_uQZ4Hej6ZKos3-FbRU-6">
          <mxGeometry relative="1" as="geometry" />
        </mxCell>
        <mxCell id="X_uQZ4Hej6ZKos3-FbRU-44" value="5" style="ellipse;whiteSpace=wrap;html=1;aspect=fixed;strokeWidth=2;fontFamily=Tahoma;spacingBottom=4;spacingRight=2;strokeColor=#d3d3d3;" vertex="1" parent="1">
          <mxGeometry x="70" y="740" width="20" height="20" as="geometry" />
        </mxCell>
        <mxCell id="X_uQZ4Hej6ZKos3-FbRU-45" value="&lt;font style=&quot;font-size: 14px;&quot;&gt;During code development, developers often write comments to clarify the coding process for other developers. CodeWhisperer can use these comments to suggest code snippets to extend and add functionality to the code. The completed LF can then be deployed to monitor the fleet of EC2 instances.&lt;/font&gt;" style="rounded=0;whiteSpace=wrap;html=1;" vertex="1" parent="1">
          <mxGeometry x="90" y="740" width="200" height="190" as="geometry" />
        </mxCell>
        <mxCell id="X_uQZ4Hej6ZKos3-FbRU-46" value="6" style="ellipse;whiteSpace=wrap;html=1;aspect=fixed;strokeWidth=2;fontFamily=Tahoma;spacingBottom=4;spacingRight=2;strokeColor=#d3d3d3;" vertex="1" parent="1">
          <mxGeometry x="310" y="740" width="20" height="20" as="geometry" />
        </mxCell>
        <mxCell id="X_uQZ4Hej6ZKos3-FbRU-47" value="&lt;font style=&quot;font-size: 14px;&quot;&gt;If the fleet of EC2 instances exceeds the # of instances allowed, for example, the Lambda script can be coded to remove extra instances until the # of instances meets the set parameters.&lt;/font&gt;" style="rounded=0;whiteSpace=wrap;html=1;" vertex="1" parent="1">
          <mxGeometry x="330" y="740" width="200" height="120" as="geometry" />
        </mxCell>
        <mxCell id="X_uQZ4Hej6ZKos3-FbRU-48" value="7" style="ellipse;whiteSpace=wrap;html=1;aspect=fixed;strokeWidth=2;fontFamily=Tahoma;spacingBottom=4;spacingRight=2;strokeColor=#d3d3d3;" vertex="1" parent="1">
          <mxGeometry x="550" y="740" width="20" height="20" as="geometry" />
        </mxCell>
        <mxCell id="X_uQZ4Hej6ZKos3-FbRU-51" value="&lt;font style=&quot;font-size: 14px;&quot;&gt;Developers can also use CodeWhisperer suggestions to create code that monitors and enforces instance type. In the Lambda script, EC2 instances that do not meet type requirements might be set to terminate&lt;/font&gt;" style="rounded=0;whiteSpace=wrap;html=1;" vertex="1" parent="1">
          <mxGeometry x="570" y="740" width="200" height="130" as="geometry" />
        </mxCell>
      </root>
    </mxGraphModel>
  </diagram>
</mxfile>
